<svg id="Layer_1" data-name="Layer 1" xmlns="http://www.w3.org/2000/svg" viewBox="0 0 512 512"><defs><style>.cls-1{fill:#727272;}</style></defs><title>fish-handdrawn</title><path class="cls-1" d="M511.52,58.34c-.32-5.36-.66-10.73-1.24-16.08-.25-2.68-.54-5.35-.9-8l-.52-4a36.55,36.55,0,0,0-1.13-5,31.76,31.76,0,0,0-21.27-21,36.49,36.49,0,0,0-5-1.08l-4-.51A333.72,333.72,0,0,0,413.05.8a272.82,272.82,0,0,0-63.63,11.64v0A213.09,213.09,0,0,0,303,32.65L297.5,35.8l-5.27,3.57L287,42.95l-2.63,1.79c-.88.6-2,1.61-3,2.42A33.18,33.18,0,0,0,270.84,76a32.68,32.68,0,0,0,6,14.75,45.23,45.23,0,0,0,4.86,5.43l4.33,4.33,17.33,17.33L338,152.54l8.59,8.63c-5.87,2.52-13.23,7.63-21,14.82-4.39,4-8.71,8.37-13,12.64L300,201.2c-2.07-2-4.19-4-6.41-5.87a9.83,9.83,0,0,1-1.64-2c-10.3-15.32-25.81-26.62-37.29-41a8,8,0,0,0-.94-.89c-3.46-3-7.49-3.5-8.87-1-2.64,4.74-.87,11.86,4.74,18.49,1.94,2.28,4.1,4.44,6.24,6.58q17.46,17.49,34.94,34.95L253.19,248c-1.32-1.23-2.66-2.44-4.08-3.58a6.35,6.35,0,0,1-1.27-1.61c-7.74-12.76-20.57-21.38-29.46-33.2a5.16,5.16,0,0,0-.75-.71c-2.81-2.39-6.39-2.4-7.89,0-2.85,4.53-2,10.76,2.42,16.17a71.08,71.08,0,0,0,5,5.29q13.42,13.45,26.86,26.87l-14,14,0,0-23.67,23.66c-.54-.45-1.07-.91-1.63-1.33a3.66,3.66,0,0,1-.91-1.25c-5.18-10.2-15.33-16.14-21.62-25.37a2.89,2.89,0,0,0-.57-.53,4.75,4.75,0,0,0-6.9,1,11.43,11.43,0,0,0,.1,13.85,40,40,0,0,0,3.67,4q9.37,9.39,18.76,18.77-15.7,15.7-31.41,31.39l-6.2,6.15c-2.67-7.5-10-10.76-13.72-17.35a1.28,1.28,0,0,0-.39-.34c-1.51-1.09-4.19-.21-5.91,1.95-3.27,4.11-4.17,8.57-2.23,11.52a17.89,17.89,0,0,0,2.39,2.73q5.3,5.33,10.63,10.63-6.11,6-12.24,12a113.34,113.34,0,0,0-19.28,24.22c-1.71,3-.19,4.16,3,1.65,5-3.91,10.15-8,15.16-12.47q10.17-9,20.3-18.39c3.9,3.9,7.81,7.79,11.69,11.71q2.74,2.76,5.35,5.65c1.6,1.77,3.91,2.31,6.82,1.88,1.1-.16,2.42-1.55,2.21-2.49a16.62,16.62,0,0,0-1.42-4.1,68.48,68.48,0,0,0-3.88-6.26,84,84,0,0,0-6.17-8.38c-1.87-2.1-3.49-4.45-5.21-6.7,11.51-10.68,23.08-21.34,34.35-32.36q2.21-2.16,4.44-4.31,8.45,8.44,16.89,16.9,4.11,4.14,8.1,8.41a12.73,12.73,0,0,0,9,4.06c1.33.08,2.64-1.33,2.14-2.56a31.59,31.59,0,0,0-2.8-5.49c-2-3-4.18-5.94-6.42-8.79-3.19-4.07-6.3-8.23-9.81-12-2.76-3-5.27-6.18-7.88-9.3,12.92-12.23,26-24.3,38.47-37.05q11.29,11.29,22.57,22.59,5.49,5.51,10.85,11.15a20.48,20.48,0,0,0,11.17,6.23,1.81,1.81,0,0,0,2.07-2.63,52.56,52.56,0,0,0-4.18-6.87c-2.86-3.85-5.87-7.62-9-11.33-4.4-5.28-8.72-10.66-13.45-15.66-3.89-4.12-7.5-8.48-11.24-12.74l1.89-2a39,39,0,0,1,3.77-3.44c11.6-9.53,22.62-20.06,33.49-30.84q14,14,28,28,6.86,6.89,13.6,13.9a30.43,30.43,0,0,0,13.34,8.41c1.8.54,3.08-.9,2-2.7a79.86,79.86,0,0,0-5.57-8.25c-3.7-4.69-7.55-9.31-11.49-13.86-5.61-6.49-11.14-13.08-17.09-19.29-4.72-4.94-9.19-10.11-13.76-15.2,12.41-12.48,24.76-25,37.71-36.6.62-.55,1.22-1.23,1.81-1.85a45.72,45.72,0,0,0,4.11-5l43.47,43.69q6.79,6.85,13.24,13l6.38,6a32.61,32.61,0,0,0,8.69,6.07c13.14,6.22,27.6,1.71,34.86-6.77,2.79-3.21,3.11-5.3,2.43-5.33s-2.62,1.67-6.38,4.3a26.23,26.23,0,0,1-20.3,4,24.79,24.79,0,0,1-9.54-4.32c-2.81-2.07-5.07-4.89-7.6-7.47l-53.58-55.95C339.79,139.07,314,112.31,288,86a20.8,20.8,0,0,1-5.23-18.31,21.08,21.08,0,0,1,4.1-8.83c2-2.59,4.64-4.4,8.08-6.61,12.6-8.92,26.58-15.71,40.89-21.41,28.73-11.43,59.76-16.38,91-18a96.72,96.72,0,0,1,10.84.12c9.63.42,19.27,1.38,28.91,2.5,4.66.57,10,1.29,14.07,2a17.7,17.7,0,0,1,9.18,5.27,17.46,17.46,0,0,1,4.45,9.52c.62,4.75,1.15,9.68,1.58,14.53.8,9.76,1.31,19.58,1.31,29.4.07,39.15-7,79-24.82,112.77l-2.31,4.85c-2.31,4.18-4.3,8.11-6,11.65s-3.39,6.41-4.43,8.93c-2.15,5-2.54,7.88-.51,7.32s4.55-2.22,7.74-5c1.59-1.38,3.35-3,5.21-4.91q2.56-3,5.45-6.77c7.76-10,15.95-24.76,21.92-43.11a229.63,229.63,0,0,0,9.09-39.19A316.72,316.72,0,0,0,511.52,58.34Z"/><path class="cls-1" d="M105.36,388.09c-4.78.74-3.82,2.49.8,3.45a17.37,17.37,0,0,1,12.58,16.17l-3.29,39.75L113.27,476l-.52,7.15c-.2,2.25-.26,5.11-.59,6.71a12.59,12.59,0,0,1-15,10A11.53,11.53,0,0,1,93.07,498a24.83,24.83,0,0,1-3.78-3.55L72.46,476.76C61.2,465,49.77,453.32,37.71,442.15A48,48,0,0,1,33.86,438q-4.88-5.83-10-11.51l-5.18-5.66-1.31-1.41-.76-1a9,9,0,0,1-1.14-1.94,9.87,9.87,0,0,1,.44-8.56,9.17,9.17,0,0,1,6.91-4.81c.43,0,.64-.11,1.25-.15l1.94-.09,3.88-.18,7.76-.36,15.51-.65c10.32-.38,20.61-.62,30.83-.55.93,0,1.92-.09,2.88-.16,10.23-.74,17.19-3.57,15.33-6.23-3.53-5.07-17.7-8.24-37-8.12-6.65,0-13.46.35-20.19.64l-16.25.7a82.87,82.87,0,0,0-9.21.67A24.18,24.18,0,0,0,.11,414.72a23.09,23.09,0,0,0,4,11.14A17.54,17.54,0,0,0,6,428.17c.66.77,1.31,1.49,1.72,1.87l2.87,2.87,46,46,0,0L74.4,496.82l4.47,4.47,2.24,2.23c.74.74,1.38,1.43,2.69,2.53a23.6,23.6,0,0,0,17.12,5.89,24.52,24.52,0,0,0,16.32-7.55,24.22,24.22,0,0,0,5-7.85,28.69,28.69,0,0,0,1.23-4.46c.18-1.39.42-3.31.42-4.14L125,462.69l2.1-43.29c.17-3.34.26-6.43.25-9.64a22.42,22.42,0,0,0-3.56-12.22A20.3,20.3,0,0,0,105.36,388.09Z"/><path class="cls-1" d="M389.84,69.45c-4.2-1.12-9.34-3.52-13.54-2.4s-5.71,7.28-8.91,10.48-10.12,4.64-11.2,8.71,1,9.81,2.11,14,2.53,9.45,5.73,12.65,9.67.53,13.75,1.62,7,.76,11.16-.36,9.56.84,12.75-2.35a26.77,26.77,0,0,0,6.67-11.6c1.12-4.2-3.14-8-4.26-12.23s-1.39-7.36-4.58-10.56S393.91,70.54,389.84,69.45Z"/></svg>